<?xml version="1.0" encoding="utf-8"?><!-- Generator: Adobe Illustrator 26.4.1, SVG Export Plug-In . SVG Version: 6.00 Build 0)  --><svg version="1.1" id="Layer_1" xmlns="http://www.w3.org/2000/svg" xmlns:xlink="http://www.w3.org/1999/xlink" x="0px" y="0px"	 viewBox="0 0 559.3 103.7" style="enable-background:new 0 0 559.3 103.7;" xml:space="preserve"><style type="text/css">	.st0{fill:#0D82A4;}	.st1{fill:#00B3DA;}	.st2{fill:#0096C9;}	.st3{fill:#0D82A4;}</style><g>	<path class="st0" d="M171.8,46.7c0,22.2-13,36-33.6,36c-20.7,0-33.6-13.9-33.6-36c0-22.2,13-36.1,33.6-36.1		C158.8,10.6,171.8,24.5,171.8,46.7z M119.4,46.7c0,14.6,7.3,23.8,18.8,23.8c11.4,0,18.7-9.2,18.7-23.8c0-14.6-7.3-23.9-18.7-23.9		S119.4,32,119.4,46.7z"/>	<path class="st0" d="M213.9,49c-0.8-5.5-4.4-9.3-10.2-9.3c-7,0-11.3,5.9-11.3,15.9c0,10.2,4.3,16,11.4,16c5.7,0,9.3-3.4,10.2-9		h13.1c-0.7,12.2-9.9,20.1-23.5,20.1c-15.6,0-25.5-10.1-25.5-27.1c0-16.6,9.9-27,25.4-27c14,0,22.9,8.7,23.5,20.4H213.9z"/>	<path class="st0" d="M281.1,65.7c-1.5,10.1-10.8,17-23.6,17c-15.9,0-25.5-10.2-25.5-26.8c0-16.5,9.7-27.3,25-27.3		c15.1,0,24.6,10.2,24.6,26v4.3h-35.7v0.9c0,7.4,4.7,12.5,11.9,12.5c5.2,0,9.1-2.6,10.4-6.5H281.1z M246,50.2h22		c-0.3-6.6-4.6-11.2-10.9-11.2C250.9,39,246.5,43.7,246,50.2z"/>	<path class="st0" d="M286.8,66.6c0-9.4,7.2-14.9,20.2-15.7l13-0.8v-3.4c0-4.8-3.4-7.6-8.7-7.6c-5.3,0-8.6,2.6-9.3,6.4h-12.9		c0.5-10.1,9.1-17,22.8-17c13.3,0,21.9,6.9,21.9,17.3v35.6h-13.6v-7.9H320c-2.9,5.5-9.3,8.7-15.8,8.7		C294.3,82.3,286.8,76,286.8,66.6z M320,62.5v-3.8l-10.9,0.7c-5.3,0.4-8.3,2.8-8.3,6.4c0,3.9,3.2,6.3,8,6.3		C315,72.1,320,68.1,320,62.5z"/>	<path class="st0" d="M343,29.7h13.6v9.2h0.3c2.8-6.4,8.2-10.2,16.2-10.2c11.5,0,18,7.2,18,19.4v33.4H377V51.1		c0-6.8-3.2-10.6-9.5-10.6c-6.3,0-10.3,4.6-10.3,11.4v29.7H343V29.7z"/>	<path class="st0" d="M414.4,81.5L391,11.8h16.3l15.9,54.7h0.3l15.9-54.7h15.9L432,81.5H414.4z"/>	<path class="st0" d="M452.7,55.6c0-16.8,10.1-27,25.7-27c15.5,0,25.7,10.1,25.7,27c0,17.1-10,27.1-25.7,27.1S452.7,72.6,452.7,55.6		z M489.7,55.6c0-10.3-4.4-16.2-11.3-16.2c-6.9,0-11.4,5.9-11.4,16.2c0,10.4,4.4,16.2,11.4,16.2C485.3,71.9,489.7,66,489.7,55.6z"/>	<path class="st0" d="M511.4,100.6V89.7c0.5,0.1,3,0.1,3.6,0.1c5.1,0,7.7-1.6,8.7-5.8c0-0.2,0.5-2.3,0.5-2.5l-18-51.9h15.5l11,40.5		h0.3l11-40.5h14.9l-17.8,53c-4.4,13.3-10.9,18-24.1,18C516.2,100.7,511.9,100.7,511.4,100.6z"/></g><g>	<path class="st1" d="M60.1,10.8L45.7,2.4c-0.8-0.4-1.7-0.4-2.5,0l-14.5,8.4c-0.6,0.3-0.6,1.2,0,1.5l5.7,3.6		c0.9,0.6,2.1,0.6,3.1,0.1l6.2-3.6c0.5-0.3,1.1-0.3,1.6,0l6.2,3.6c1,0.6,2.2,0.5,3.1-0.1l5.7-3.6C60.7,11.9,60.7,11.1,60.1,10.8"/>	<path class="st2" d="M86.6,57.7l-6.6,3.8c-0.9,0.5-1.5,1.5-1.5,2.6l0,6.2c0,0.6-0.3,1.2-0.9,1.6L72.2,75c-0.9,0.5-1.5,1.5-1.5,2.6		l0,7.5c0,0.6,0.7,1,1.2,0.7l14.6-8.4c0.8-0.4,1.2-1.3,1.2-2.1c0-3.6,0-13.3,0-16.8C87.8,57.8,87.2,57.4,86.6,57.7"/>	<path class="st3" d="M2,57.5l7.6,4.4c0.5,0.3,0.9,0.9,0.9,1.5l0,6.9c0,0.7,0.4,1.3,1,1.7l5.9,3.4c0.6,0.3,0.9,0.9,0.9,1.5l0,8.8		c0,0.4-0.4,0.6-0.7,0.4L2.6,77.5C1.7,77,1.1,76,1.1,74.9c0-4,0-13.9,0-16.9C1.1,57.5,1.6,57.3,2,57.5"/>	<path class="st3" d="M43.1,100.8c0,0,0.6,0.4,1.4,0.4l0-49.6l-43-24.8c-0.2,0.3-0.3,0.7-0.3,1.2c0,0,0,0,0,0l0,17.6		c0,0.4,0.2,0.8,0.6,1l7.7,4.5c0.4,0.2,1-0.1,0.9-0.6l0-6.7c0-0.6,0.7-1,1.2-0.7l22.7,13.1c1,0.6,1.6,1.6,1.6,2.7l0,25.6		c0,0.6-0.7,1-1.2,0.7l-5.5-3.1c-0.8-0.4-1.7,0.1-1.7,1l0,6.9c0,1.1,0.6,2.1,1.5,2.7L43.1,100.8L43.1,100.8z"/>	<path class="st2" d="M87.8,44.3l0-16.1c0,0,0,0,0,0s0-0.7-0.3-1.3l-43,24.8l0,49.6c0.4,0,0.9-0.1,1.3-0.3c0,0,0,0,0,0L60,92.7		c0.9-0.5,1.5-1.5,1.5-2.5l0-7.3c0-0.7-0.8-1.2-1.5-0.8l-5.4,3.1c-0.6,0.4-1.4-0.1-1.4-0.8L53.1,59c0-1,0.5-1.9,1.3-2.3l22.9-13.2		c0.5-0.3,1.2,0.1,1.2,0.7l0,5.9c0,0.7,0.8,1.1,1.4,0.8l6.1-3.5C87.1,46.7,87.8,45.5,87.8,44.3"/>	<path class="st1" d="M86.7,26.1c0,0-0.1-0.1-0.1-0.1L72.8,18c-1.3-0.7-2.8-0.7-4.1,0l-5.6,3.1c-0.7,0.4-0.7,1.4,0,1.9l5.6,3.2		c0.5,0.3,0.5,1,0,1.3L46,40.8c-0.9,0.5-2,0.5-2.9,0L18.7,26.8l6.8-3.9c0.7-0.4,0.7-1.5,0-1.9l-5.4-3c-1.3-0.7-2.8-0.7-4.1,0L2.3,26		c0,0,0,0.1,0,0.1s-0.5,0.3-0.8,0.8l43,24.8l43-24.8C87.3,26.6,87.1,26.3,86.7,26.1"/></g></svg>